<svg width="99" height="26" viewBox="0 0 99 26" fill="none" xmlns="http://www.w3.org/2000/svg">
<mask id="mask0_304_50" style="mask-type:luminance" maskUnits="userSpaceOnUse" x="8" y="0" width="6" height="5">
<path d="M8.229 0.21344H13.0074V4.99328H8.229V0.21344Z" fill="white"/>
</mask>
<g mask="url(#mask0_304_50)">
<mask id="mask1_304_50" style="mask-type:luminance" maskUnits="userSpaceOnUse" x="8" y="0" width="6" height="5">
<path d="M10.6182 0.21344C9.29775 0.21344 8.229 1.2836 8.229 2.60407C8.229 3.92313 9.29775 4.99328 10.6182 4.99328C11.9373 4.99328 13.0074 3.92313 13.0074 2.60407C13.0074 1.2836 11.9373 0.21344 10.6182 0.21344Z" fill="white"/>
</mask>
<g mask="url(#mask1_304_50)">
<path d="M8.229 0.21344H13.0074V4.99328H8.229V0.21344Z" fill="white"/>
</g>
</g>
<path d="M39.6373 7.58801C41.2756 7.58801 42.575 7.98739 43.5355 8.78614C44.4945 9.58207 44.9755 10.7015 44.9755 12.1443C44.9755 13.1047 44.7673 13.9527 44.3511 14.6868C43.9377 15.418 43.4258 15.9918 42.8155 16.408C42.2038 16.8214 41.4613 17.1589 40.588 17.4205C39.1213 17.8564 37.4717 18.073 35.638 18.073C35.7013 19.2318 36.0613 20.1683 36.718 20.8799C37.3733 21.5886 38.3788 21.943 39.733 21.943C41.0858 21.943 42.44 21.4635 43.7942 20.503L45.043 23.1524C44.6042 23.5461 43.8645 23.9511 42.8267 24.3674C41.7917 24.7836 40.6063 24.9918 39.2717 24.9918C36.6083 24.9918 34.655 24.2549 33.4105 22.7811C32.1645 21.3046 31.543 19.2768 31.543 16.7005C31.543 14.1215 32.2517 11.9572 33.6692 10.2093C35.0895 8.4627 37.0794 7.58801 39.6373 7.58801ZM38.1411 15.0805C38.9398 14.9385 39.6767 14.6221 40.3517 14.1299C41.0295 13.6349 41.3698 13.0499 41.3698 12.3749C41.3698 11.0404 40.7145 10.3724 39.4067 10.3724C38.1833 10.3724 37.2439 10.8604 36.5886 11.8349C35.9319 12.8066 35.5719 13.9696 35.5086 15.3224C36.4677 15.2999 37.3452 15.2197 38.1411 15.0805Z" fill="white"/>
<path d="M61.9824 8.73551V20.9249C61.9824 21.2779 62.0415 21.5197 62.1624 21.6505C62.282 21.7785 62.4957 21.853 62.8037 21.8755L63.8499 21.943V24.5643H58.6412V22.663L58.5399 22.6293C57.4487 24.2043 55.9524 24.9918 54.0512 24.9918C51.8237 24.9918 50.1727 24.2816 49.1012 22.8599C48.0324 21.4396 47.498 19.4947 47.498 17.0268C47.498 14.0568 48.218 11.7421 49.658 10.0799C51.1009 8.41911 53.2651 7.58801 56.1493 7.58801C58.0055 7.58801 59.949 7.97051 61.9824 8.73551ZM58.1799 19.3555V10.8674C57.5682 10.5833 56.7287 10.4399 55.6599 10.4399C54.1932 10.4399 53.1315 11.0305 52.4762 12.2118C51.8237 13.3902 51.4974 14.9511 51.4974 16.8974C51.4974 20.4383 52.6337 22.2074 54.9062 22.2074C55.8652 22.2074 56.6513 21.9191 57.263 21.3411C57.8734 20.7604 58.1799 20.098 58.1799 19.3555Z" fill="white"/>
<path d="M65.6498 10.7324V8.08301H71.1904V10.2093C72.4124 8.4627 74.0887 7.58801 76.2192 7.58801C78.3482 7.58801 79.7854 8.4627 80.5279 10.2093C81.7542 8.4627 83.4149 7.58801 85.5117 7.58801C87.0824 7.58801 88.2932 8.06473 89.1454 9.01676C90.0004 9.96598 90.4279 11.3905 90.4279 13.2918V21.8418L92.2954 21.943V24.5643H84.4935V22.0724L85.5792 21.9768C85.9054 21.9318 86.1388 21.8389 86.2823 21.6955C86.4243 21.5535 86.5045 21.2961 86.5242 20.9249V14.1411C86.5242 12.9416 86.3863 12.0529 86.1135 11.4749C85.8435 10.8941 85.2051 10.603 84.201 10.603C83.1956 10.603 82.4249 10.9096 81.8892 11.5199C81.352 12.1316 81.0848 12.9515 81.0848 13.978V21.8418L82.8904 21.943V24.5643H75.156V22.0724L76.236 21.9768C76.5623 21.9318 76.8013 21.8389 76.956 21.6955C77.1093 21.5535 77.1867 21.2849 77.1867 20.8911V14.1411C77.1867 12.9416 77.0488 12.0529 76.776 11.4749C76.5018 10.8941 75.8563 10.603 74.841 10.603C73.8285 10.603 73.0593 10.9208 72.5348 11.5536C72.0088 12.1879 71.7473 12.9754 71.7473 13.9161V21.8418L73.5192 21.943V24.5643H65.7848V22.0724L66.8648 21.9768C67.191 21.9318 67.4301 21.8389 67.5848 21.6955C67.7381 21.5535 67.8154 21.2849 67.8154 20.8911H67.8492V11.8518C67.8492 11.4777 67.7887 11.2204 67.6692 11.0811C67.5482 10.9391 67.3345 10.8561 67.0279 10.8336L65.6498 10.7324Z" fill="white"/>
<mask id="mask2_304_50" style="mask-type:luminance" maskUnits="userSpaceOnUse" x="0" y="1" width="5" height="9">
<path d="M0 1H4.68V9.64H0V1Z" fill="white"/>
</mask>
<g mask="url(#mask2_304_50)">
<mask id="mask3_304_50" style="mask-type:luminance" maskUnits="userSpaceOnUse" x="-1" y="1" width="6" height="9">
<path d="M4.5687 1.11673L4.73042 9.21532L0.140415 9.30532L-0.0198975 1.20814L4.5687 1.11673Z" fill="white"/>
</mask>
<g mask="url(#mask3_304_50)">
<mask id="mask4_304_50" style="mask-type:luminance" maskUnits="userSpaceOnUse" x="-1" y="1" width="6" height="9">
<path d="M4.73042 9.21532L4.5687 1.11673L-0.0198975 1.20814L0.140415 9.30532L4.73042 9.21532Z" fill="white"/>
</mask>
<g mask="url(#mask4_304_50)">
<mask id="mask5_304_50" style="mask-type:luminance" maskUnits="userSpaceOnUse" x="-1" y="1" width="6" height="9">
<path d="M4.73042 9.21532L4.5687 1.11673L-0.0198975 1.20814L0.140415 9.30532L4.73042 9.21532Z" fill="white"/>
</mask>
<g mask="url(#mask5_304_50)">
<path d="M0.14083 9.29969L4.56911 1.12234L0.0227051 3.34703L0.14083 9.29969Z" fill="white"/>
</g>
</g>
</g>
</g>
<mask id="mask6_304_50" style="mask-type:luminance" maskUnits="userSpaceOnUse" x="93" y="0" width="6" height="10">
<path d="M93.8101 0.880005H98.8501V9.16H93.8101V0.880005Z" fill="white"/>
</mask>
<g mask="url(#mask6_304_50)">
<mask id="mask7_304_50" style="mask-type:luminance" maskUnits="userSpaceOnUse" x="93" y="0" width="6" height="10">
<path d="M98.5506 0.996735L98.7109 9.09533L94.1223 9.18533L93.9606 1.08814L98.5506 0.996735Z" fill="white"/>
</mask>
<g mask="url(#mask7_304_50)">
<mask id="mask8_304_50" style="mask-type:luminance" maskUnits="userSpaceOnUse" x="93" y="0" width="6" height="10">
<path d="M94.0168 9.18829L93.8551 1.0897L98.4451 0.998291L98.6054 9.09689L94.0168 9.18829Z" fill="white"/>
</mask>
<g mask="url(#mask8_304_50)">
<mask id="mask9_304_50" style="mask-type:luminance" maskUnits="userSpaceOnUse" x="93" y="0" width="6" height="10">
<path d="M94.0168 9.18829L93.8551 1.0897L98.4451 0.998291L98.6054 9.09689L94.0168 9.18829Z" fill="white"/>
</mask>
<g mask="url(#mask9_304_50)">
<path d="M98.6054 9.08971L93.8551 1.09659L98.4873 3.13706L98.6054 9.08971Z" fill="white"/>
</g>
</g>
</g>
</g>
<mask id="mask10_304_50" style="mask-type:luminance" maskUnits="userSpaceOnUse" x="0" y="0" width="8" height="5">
<path d="M0.190918 0.996704H7.2967V4.20999H0.190918V0.996704Z" fill="white"/>
</mask>
<g mask="url(#mask10_304_50)">
<path d="M0.190918 0.996704H7.29529V4.20999H0.190918V0.996704Z" fill="white"/>
</g>
<mask id="mask11_304_50" style="mask-type:luminance" maskUnits="userSpaceOnUse" x="13" y="0" width="86" height="5">
<path d="M13.9609 0.996704H98.4864V4.20999H13.9609V0.996704Z" fill="white"/>
</mask>
<g mask="url(#mask11_304_50)">
<path d="M13.9609 0.996704H98.4906V4.20999H13.9609V0.996704Z" fill="white"/>
</g>
<mask id="mask12_304_50" style="mask-type:luminance" maskUnits="userSpaceOnUse" x="22" y="2" width="5" height="24">
<path d="M22.4716 2H26.3584V25.0605H22.4716V2Z" fill="white"/>
</mask>
<g mask="url(#mask12_304_50)">
<path d="M22.4716 2H26.3584V25.0537H22.4716V2Z" fill="white"/>
</g>
<mask id="mask13_304_50" style="mask-type:luminance" maskUnits="userSpaceOnUse" x="19" y="22" width="11" height="4">
<path d="M19.7238 22.6699H29.012V25.0605H19.7238V22.6699Z" fill="white"/>
</mask>
<g mask="url(#mask13_304_50)">
<path d="M19.7238 22.6699H29.0078V25.0605H19.7238V22.6699Z" fill="white"/>
</g>
<path d="M8.60313 23.2084C7.30797 24.0002 5.93406 24.1309 5.46297 23.3603C4.99328 22.5897 5.71891 21.5533 7.01547 20.763C8.31063 19.9713 9.68453 19.7252 10.1556 20.4958C10.6253 21.2664 9.89969 22.4181 8.60313 23.2084ZM10.6577 7.21094C10.4959 7.21094 10.3652 7.34312 10.3652 7.50484V19.9023C9.53688 19.0192 7.99703 18.8294 6.62172 19.5241C5.01578 20.3355 4.24516 22.0455 4.90188 23.3434C5.55719 24.6428 7.39094 25.0366 8.99688 24.2252C10.2119 23.612 10.9473 22.4856 10.9516 21.4113C10.9516 21.407 10.9516 21.4028 10.9516 21.3986V7.50484C10.9516 7.34312 10.8208 7.21094 10.6577 7.21094Z" fill="white"/>
</svg>
