<svg width="80" height="80" viewBox="0 0 80 80" fill="none" xmlns="http://www.w3.org/2000/svg">
<path d="M40 0C17.92 0 0 17.92 0 40C0 62.08 17.92 80 40 80C62.08 80 80 62.08 80 40C80 17.92 62.08 0 40 0ZM40 12C46.64 12 52 17.36 52 24C52 30.64 46.64 36 40 36C33.36 36 28 30.64 28 24C28 17.36 33.36 12 40 12ZM40 68.8C35.2474 68.8 30.5687 67.6239 26.3811 65.3766C22.1935 63.1292 18.6271 59.8804 16 55.92C16.12 47.96 32 43.6 40 43.6C47.96 43.6 63.88 47.96 64 55.92C61.3729 59.8804 57.8065 63.1292 53.6189 65.3766C49.4313 67.6239 44.7526 68.8 40 68.8Z" fill="#FAFAFA"/>
</svg>
